<?xml version="1.0" standalone="no"?>
<!DOCTYPE svg PUBLIC "-//W3C//DTD SVG 20010904//EN"
 "http://www.w3.org/TR/2001/REC-SVG-20010904/DTD/svg10.dtd">
<svg version="1.0" xmlns="http://www.w3.org/2000/svg"
 width="49.000000pt" height="45.000000pt" viewBox="0 0 49.000000 45.000000"
 preserveAspectRatio="xMidYMid meet">
<metadata>
Created by potrace 1.11, written by Peter Selinger 2001-2013
</metadata>
<g transform="translate(0.000000,45.000000) scale(0.100000,-0.100000)"
fill="#000000" stroke="none">
<path d="M176 438 c-40 -11 -136 -95 -136 -118 0 -7 -9 -23 -20 -37 -33 -43
-26 -81 31 -156 51 -69 102 -104 156 -109 45 -5 38 15 -10 27 -60 15 -102 48
-126 98 -62 127 21 271 158 276 88 3 136 -24 185 -103 19 -29 25 -103 12 -143
-6 -18 -4 -20 13 -16 69 18 59 84 -31 210 -45 63 -146 94 -232 71z"/>
<path d="M164 396 c-57 -25 -88 -70 -100 -144 -5 -29 -3 -34 8 -25 7 6 42 15
78 22 62 10 159 62 161 86 1 6 4 -1 8 -15 7 -25 63 -70 87 -70 31 0 7 68 -40
116 -43 42 -140 57 -202 30z"/>
<path d="M140 220 c-8 -15 -6 -24 10 -40 22 -22 46 -18 55 11 14 42 -44 68
-65 29z"/>
<path d="M280 225 c-16 -19 -4 -52 20 -58 27 -7 53 29 39 55 -12 22 -42 24
-59 3z"/>
<path d="M190 98 c0 -4 9 -13 20 -21 25 -17 67 -11 80 13 8 15 4 17 -45 16
-30 0 -55 -4 -55 -8z"/>
</g>
</svg>
