<svg xmlns="http://www.w3.org/2000/svg" xmlns:xlink="http://www.w3.org/1999/xlink" xml:space="preserve" style="shape-rendering:geometricPrecision;text-rendering:geometricPrecision;image-rendering:optimizeQuality;" viewBox="0 0 60.353 54.7031" x="0px" y="0px" fill-rule="evenodd" clip-rule="evenodd"><defs><style type="text/css">
   
    .fil0 {fill:#373435}
   
  </style></defs><g><path class="fil0" d="M52.9227 24.651c-0.910592,-11.3035 -10.7522,-20.2007 -22.5374,-20.2007 -11.7852,0 -23.706,7.76855 -22.4845,25.136 2.60427,-8.81144 15.6356,1.88369 32.4307,-16.6981 -2.6565,7.45125 7.32625,11.0259 12.5911,11.7629z"></path><path class="fil0" d="M36.5188 41.7556c1.15923,2.20052 -1.30339,5.7277 -6.03039,5.7277 -4.41633,0 -7.51284,-3.55204 -6.3121,-5.60954 1.46739,0.875236 3.64511,1.42976 6.07624,1.42976 2.53857,0 4.80068,-0.604704 6.26625,-1.54769l0 -0.000228104z"></path><ellipse class="fil0" cx="21.4023" cy="30.5897" rx="4.44165" ry="4.57053"></ellipse><ellipse class="fil0" cx="38.6655" cy="30.5897" rx="4.44165" ry="4.57053"></ellipse><path class="fil0" d="M30.1629 27.0949l0.198907 0.0821175 -0.199135 -0.0907855 0.000228104 0.00866796zm30.1898 0.813876c0,-4.10086 -1.7872,-7.54227 -4.19917,-8.49073 -3.20897,-10.8696 -13.074,-18.9735 -25.024,-19.4003 -12.5763,-0.449137 -23.4553,7.74779 -26.9147,19.2604 -2.41973,0.940018 -4.21491,4.38713 -4.21491,8.49666 0,4.39192 2.04997,8.02745 4.72153,8.65428 3.4389,9.36186 11.9123,16.356 22.2475,17.5713 0.374319,0.430661 0.925875,0.702561 1.54153,0.702561 1.12775,0 2.04245,-0.91447 2.04245,-2.04267 0,-1.12798 -0.91447,-2.04222 -2.04245,-2.04222 -0.619987,0 -1.17497,0.276006 -1.54974,0.711913 -12.3605,-1.61749 -21.6904,-12.4064 -21.2367,-25.1166 0.481984,-13.4974 11.8142,-24.0481 25.3114,-23.5664 13.4974,0.481756 24.0483,11.8142 23.5664,25.3114 -0.104016,2.91494 -0.728793,5.78541 -1.84194,8.47635 5.59928,0.770992 7.59313,-4.79042 7.59313,-8.52631l-0.000228104 0.000228104z"></path></g></svg>